<?xml version="1.0" encoding="UTF-8"?>
<svg viewBox="0 0 300 318" xmlns="http://www.w3.org/2000/svg" xmlns:xlink="http://www.w3.org/1999/xlink">
 <defs>
  <linearGradient id="z" x1=".84972" x2="-.069848" y1="1.0029" y2=".14791">
   <stop stop-color="#27130c" offset="0"/>
   <stop stop-color="#241c1c" offset="1"/>
  </linearGradient>
  <linearGradient id="y" x1=".33694" x2=".33758" y1="1.7694" y2="-.32689">
   <stop offset="0"/>
   <stop stop-opacity="0" offset="1"/>
  </linearGradient>
  <linearGradient id="ai" x1="-.64113" x2="2.0687" y1="1.324" y2=".39435">
   <stop stop-color="#805d37" offset="0"/>
   <stop stop-color="#2b1100" offset=".44064"/>
   <stop stop-color="#805d37" offset="1"/>
  </linearGradient>
  <linearGradient id="v" x1="-.20242" x2="2.0222" y1=".35012" y2=".82683">
   <stop stop-color="#805d37" offset="0"/>
   <stop stop-color="#2b1100" offset=".5"/>
   <stop stop-color="#805d37" offset="1"/>
  </linearGradient>
  <linearGradient id="x" x1="1.1914" x2=".12298" y1="-.14284" y2=".58035">
   <stop stop-color="#5e453e" offset="0"/>
   <stop stop-color="#28170b" offset="1"/>
  </linearGradient>
  <linearGradient id="aa" x1=".7405" x2="-.12187" y1=".74395" y2=".89025">
   <stop stop-color="#4a3932" offset="0"/>
   <stop stop-color="#706059" offset="1"/>
  </linearGradient>
  <linearGradient id="ah" x1="-.15777" x2="1.2367" y1="-.41214" y2="1.1461">
   <stop offset="0"/>
   <stop stop-opacity="0" offset="1"/>
  </linearGradient>
  <linearGradient id="ag" x1="-.22343" y1="-.63724" y2=".93422">
   <stop offset="0"/>
   <stop stop-opacity="0" offset="1"/>
  </linearGradient>
  <linearGradient id="ab" x1=".030986" y1=".71989" y2=".49998">
   <stop stop-color="#7c6c65" offset="0"/>
   <stop stop-color="#4a3932" offset="1"/>
  </linearGradient>
  <linearGradient id="af" x1=".40956" x2=".58486" y1="-.73413" y2="1.3904" xlink:href="#a"/>
  <linearGradient id="ad" x1=".65815" x2="-.088431" y1=".55232" y2=".31666" xlink:href="#a"/>
  <linearGradient id="ac" x1="1.022" x2="-.013005" y1="1.0219" y2=".071267">
   <stop stop-color="#483e37" offset="0"/>
   <stop stop-color="#5c4336" stop-opacity="0" offset="1"/>
  </linearGradient>
  <linearGradient id="ae" x1="-.057406" x2="1.0576" y1=".50006" y2=".50006" xlink:href="#a"/>
  <linearGradient id="w" x1=".31483" x2=".62396" y1=".25504" y2="1.1163">
   <stop stop-color="#6b2e12" offset="0"/>
   <stop stop-color="#280b0b" offset="1"/>
  </linearGradient>
  <linearGradient id="a">
   <stop stop-color="#5b473c" offset="0"/>
   <stop stop-color="#999" offset="1"/>
  </linearGradient>
  <linearGradient id="b">
   <stop stop-color="#999" offset="0"/>
   <stop stop-color="#7c6c65" offset="1"/>
  </linearGradient>
  <radialGradient id="am" cx="244.77" cy="429.19" r="12.446" gradientTransform="matrix(.028105 0 0 .030377 516.97 155.19)" gradientUnits="userSpaceOnUse" xlink:href="#b"/>
  <radialGradient id="an" cx="244.77" cy="429.19" r="12.446" gradientTransform="matrix(.028105 0 0 .030377 599.09 149.35)" gradientUnits="userSpaceOnUse" xlink:href="#b"/>
  <radialGradient id="aj" cx="-244.78" cy="4.3172" r="18.846" gradientTransform="matrix(.1304 .83071 -.76364 .14004 859.36 907.66)" gradientUnits="userSpaceOnUse">
   <stop stop-color="#4d4d4d" offset="0"/>
   <stop stop-color="#4c3b34" offset="1"/>
  </radialGradient>
  <radialGradient id="al" cx="244.77" cy="429.19" r="12.446" gradientTransform="matrix(.1192 0 0 .12884 484.87 73.854)" gradientUnits="userSpaceOnUse">
   <stop offset="0"/>
   <stop stop-opacity="0" offset="1"/>
  </radialGradient>
  <radialGradient id="ak" cx="244.77" cy="429.19" r="12.446" gradientTransform="matrix(.6613 0 0 .64336 328.67 -240.75)" gradientUnits="userSpaceOnUse">
   <stop offset="0"/>
   <stop stop-opacity="0" offset="1"/>
  </radialGradient>
 </defs>
 <path d="m165.67 280.75l-6.9965-4.6802 0.6666-23.765 15.324-9.7212-8.9941 38.167z"/>
 <path d="m118.18 167.77c-0.24628-7.1573-1.255-14.26-1.909-21.387-1.2153-13.243-2.6334-26.465-3.7446-39.719-1.7915-21.367-4.7114-64.162-4.7114-64.162l0.9423-13.24s23.774-15.37 36.748-14.258c7.1468 0.61228 11.68 10.939 18.845 11.203 9.6905 0.35716 16.692-12.898 26.384-13.24 10.435-0.3686 29.21 12.221 29.21 12.221s1.1136 31.974-0.19338 47.867c-0.45164 5.4923-2.8172 10.785-2.6335 16.295 0.093292 2.7976 1.9595 5.3493 1.8845 8.1476-0.1524 5.6884-4.2634 10.625-4.7113 16.295-0.40431 5.1187 1.1631 10.199 1.8845 15.277 1.113 7.8335 1.7684 15.8 3.7691 23.424 1.3845 5.2764 5.9746 9.8032 5.6536 15.277-0.40907 6.9764-9.4227 18.332-9.4227 18.332l-26.92 25.886-13.597 5.6854-58.034-22.406s0.87077-18.336 0.55554-27.498z" fill="url(#v)"/>
 <path d="m15.684 259.02s1.8567-7.3572 3.3319-10.801c0.35997-0.84079 0.159-2.1247 1.3332-2.3739 8.6284-1.835 15.966 1.9774 23.985 2.3739 3.3433 0.16444 6.7535-0.57446 10.135-0.35109 3.5749 0.23569 7.1181 1.403 10.519 0.35109 1.0925-0.33754 1.8034-1.5969 2.8924-1.948 2.7096-0.87395 5.8041 0.77695 8.4797-0.20988 3.1377-1.155 5.3431-4.2383 8.0095-6.3642 2.1236-1.6939 4.3392-3.2601 6.3606-5.0926 3.1491-2.855 6.548-5.5627 8.9521-9.1664 8.4638-12.689 14.46-27.46 18.373-42.52 0.57689-2.2192 1.0822-4.6041 0.70747-6.8736-0.27823-1.6816-1.6807-2.9421-2.1202-4.5832-0.43832-1.6386-1.3582-3.681-0.47128-5.0926 0.3214-0.5106 1.0948-0.6591 1.6489-0.50937 3.1786 0.85919 5.0149 4.6237 7.0669 7.3842 0.75066 1.0102 1.5478 2.067 1.8851 3.3104 1.214 4.4801-1.8863 9.936 0.23508 14.004 2.0963 4.0198 6.9079 5.575 10.836 7.383 7.8153 3.5976 16.261 5.9812 24.735 6.6207 8.3479 0.62843 17.038 0.079773 24.97-2.801 8.1821-2.9728 15.374-8.7246 22.143-14.513 5.3556-4.5808 10.3-9.8574 14.369-15.786 0.58714-0.85428 0.43153-2.7384 1.4138-2.801 1.6705-0.10678 0.2896 9.4684 1.4138 14.004 0.55421 2.2388 1.9124 4.1659 2.5904 6.3654 0.76541 2.4806 1.4672 5.0312 1.6489 7.6383 0.22597 3.2257-0.36798 6.4612-0.70636 9.6758-0.42136 4.0063-0.55194 8.1108-1.649 11.966-0.69153 2.4315-1.775 4.7452-3.0627 6.8748-0.39522 0.65422-1.4127 1.7822-1.4127 1.7822l-36.277 3.3091-31.096 23.934-29.446 33.1-42.402 7.3842-49.234-13.75-20.161-21.923z" fill="url(#w)"/>
 <path d="m11.022 258.55s15.857 15.972 25.046 22.03c9.9338 6.5496 20.623 12.395 31.982 15.123 11.277 2.7086 23.248 2.9656 34.647 0.93304 10.807-1.9271 21.515-6.0424 30.846-12.243 9.2368-6.1376 15.706-16.166 23.789-23.978 4.5793-4.4255 13.992-12.963 13.992-12.963l-5.9966 33.634 35.51 0.2129 27.787-56.172s-13.778-1.1474-20.655-0.72014c-6.052 0.37599-12.157 1.0952-17.99 2.8806-6.5097 1.9927-13.114 4.448-18.656 8.6418-8.2378 6.2331-13.423 16.213-20.655 23.765-6.372 6.6538-12.587 13.673-19.989 18.937-6.7807 4.8219-14.07 9.3771-21.987 11.31-9.5321 2.3264-19.646 1.5208-29.316 0-8.4836-1.3342-16.9-3.9666-24.652-7.9217-11.141-5.6836-20.95-14.114-30.649-22.325-2.4983-2.115-7.0568-6.9071-7.0568-6.9071s-3.4901-0.13792-4.664 1.0146c-1.1324 1.1117-1.3326 4.7466-1.3326 4.7466z" fill="#1c110b"/>
 <path d="m265.16 226.63c-2.0445 0.70816-3.9517-10.036-6.0816-10.315-2.2366-0.29199-6.8129 9.4384-8.8326 8.3344-1.9233-1.0514 3.8377-10.144 2.515-11.974-1.3891-1.9219-11.048 1.6324-11.76-0.68556-0.67792-2.2074 9.2913-4.0532 9.5549-6.3588 0.27679-2.4212-8.8875-7.7302-7.8547-9.9075 0.98355-2.0733 9.5049 4.187 11.209 2.7644 1.7899-1.4939-1.438-12.075 0.70453-12.842 2.0402-0.7301 3.7322 10.216 5.8685 10.486 2.2434 0.28401 7.1907-9.4426 9.1897-8.3221 1.9036 1.067-4.0002 9.9716-2.672 11.807 1.3949 1.9278 11.255-1.3535 11.95 0.96846 0.66165 2.2112-9.4808 4.0952-9.7649 6.3951-0.29834 2.4153 8.9185 7.6244 7.8866 9.7902-0.98267 2.0624-9.3864-4.3069-11.072-2.8639-1.77 1.5154 1.3057 11.978-0.84125 12.722z" fill="#7c6c65"/>
 <path d="m264.7 224.85c-1.866 0.6463-3.6067-9.1603-5.5506-9.414-2.0414-0.2665-6.218 8.6143-8.0614 7.6067-1.7554-0.95958 3.5027-9.2582 2.2954-10.929-1.2678-1.7541-10.083 1.4899-10.733-0.62572-0.61877-2.0146 8.48-3.6993 8.7206-5.8036 0.25259-2.2098-8.1115-7.0553-7.1689-9.0424 0.89764-1.8923 8.675 3.8214 10.231 2.523 1.6336-1.3635-1.3125-11.021 0.64298-11.72 1.8621-0.66634 3.4063 9.3236 5.3561 9.5705 2.0476 0.25923 6.5629-8.6182 8.3874-7.5955 1.7374 0.97386-3.651 9.1009-2.4387 10.776 1.2731 1.7595 10.273-1.2354 10.907 0.88391 0.60388 2.0181-8.653 3.7376-8.9123 5.8368-0.27225 2.2044 8.1397 6.9587 7.198 8.9354-0.89685 1.8824-8.5669-3.9308-10.105-2.6138-1.6155 1.3831 1.1917 10.932-0.76785 11.611z" fill="url(#aj)"/>
 <path d="m183.88 222.77s-13.953-2.1701-20.476 0c-4.5379 1.5097-11.779 8.657-11.779 8.657l-8.0095-11.712s8.8374-5.494 13.663-7.1289c6.6774-2.2622 20.731-3.5644 20.731-3.5644l5.8712 13.748z" fill="url(#x)"/>
 <path d="m222.94 221.21c-6.4536 0.058533-15.004 0.29979-20.441 1.0356-9.4144 1.2741-19.398 1.8459-27.787 6.6358-6.4835 3.7018-10.772 10.751-16.005 16.302-6.8958 7.3145-13.176 15.304-20.264 22.401-5.5614 5.5678-10.579 12.283-17.425 15.803-8.2327 4.2329-17.751 5.3462-26.864 5.6002-7.9262 0.22082-15.945-1.1968-23.564-3.5672-9.5925-2.9842-18.884-7.5137-27.326-13.272-3.4861-2.3778-5.813-6.4432-9.4043-8.6303-3.6315-2.2116-7.6005-4.5151-11.676-5.5618 0.68103 0.64743 1.3294 1.2592 1.8809 1.7261 9.6988 8.2108 19.52 16.64 30.662 22.324 7.7528 3.9551 16.18 6.6057 24.664 7.9399 9.6704 1.5208 19.781 2.3265 29.313 0 7.9174-1.9324 15.186-6.4934 21.967-11.315 7.4017-5.2635 13.643-12.295 20.015-18.948 7.232-7.5518 12.416-17.51 20.654-23.743 5.5425-4.1938 12.122-6.6377 18.631-8.6303 5.8326-1.7854 11.94-2.5391 17.992-2.9151 5.1363-0.31909 13.698 0.23209 17.886 0.53699 0.70061-1.1824 1.3402-2.4388 1.8809-3.7206-1.3791-0.002457-2.9412-0.016815-4.7909 0z" fill="url(#y)"/>
 <path d="m94.238 223.44s13.394 10.46 21.201 12.731c8.1906 2.3817 17.086 2.0849 25.441 0.50923 3.4766-0.65559 6.9316-2.0003 9.8938-4.0738 3.3555-2.3487 7.8401-4.9009 8.4804-9.166 0.50623-3.3719-1.9967-6.7601-4.2402-9.166-6.3321-6.7903-16.152-8.2052-24.028-12.731-7.5163-4.3187-22.143-13.749-22.143-13.749s0.323 4.8552-0.94227 6.6199c-0.73264 1.0218-2.4929 0.5717-3.298 1.5277-3.1091 3.6918-4.6924 9.29-4.2402 14.258 0.15828 1.7392 2.6028 2.856 2.3557 4.583-0.59425 4.1532-8.4804 8.6568-8.4804 8.6568z" fill="url(#z)"/>
 <path d="m236.43 200.36l19.316-2.5469 8.0095 4.5832s1.7874 5.5197 0.47125 7.6383c-1.3843 2.229-7.0669 2.5469-7.0669 2.5469l-3.7691-5.602-18.374 4.5832 1.4138-11.203z" fill="url(#aa)"/>
 <path d="m196.86 201.89s6.8946-1.1599 10.365-1.5277c7.8288-0.82958 16.272 1.6813 23.557-1.5277 2.8867-1.2716 7.067-6.6199 7.067-6.6199s0.70117 3.381 0.94232 5.0922c0.45169 3.2059 1.2669 6.4514 0.94223 9.6752-0.26874 2.6681-2.3557 7.6383-2.3557 7.6383s-8.4863 1.3166-12.721 2.0369c-2.8309 0.48161-5.6244 1.2722-8.4804 1.5277-5.6705 0.50723-17.07 0-17.07 0-4.808-8.1848 0.34344-5.5547-2.2468-16.295z" fill="url(#ab)"/>
 <path d="m202.35 212.31c0 7.7957-5.847 14.115-13.06 14.115-7.2126 0-13.06-6.3197-13.06-14.115 0-7.7957 5.847-14.115 13.06-14.115 7.2126 0 13.06 6.3197 13.06 14.115z" fill="#7c6c65"/>
 <path d="m99.331 209.94s8.2963 4.6496 12.721 6.2019c4.4235 1.552 9.2005 1.6392 13.663 3.0553 6.2964 1.9982 12.78 3.9312 18.374 7.6384 3.6025 2.3872 9.4227 9.166 9.4227 9.166s5.3226 0.78307 7.5381-0.50925c0.69104-0.40305 1.3801-1.1889 1.4134-2.0369 0.12573-3.1998-4.7114-8.1476-4.7114-8.1476s-8.3741-6.2905-12.721-9.166c-3.838-2.539-7.5782-5.3841-11.778-7.1291-3.3072-1.374-6.9244-1.6317-10.365-2.5461-4.4171-1.1739-9.1103-1.6032-13.192-3.7736-2.3112-1.229-6.1248-5.0922-6.1248-5.0922s-3.2406 3.7711-3.9859 6.1372c-0.61709 1.9589-0.25427 6.202-0.25427 6.202z" fill="url(#ac)"/>
 <path d="m199.53 212.31c0 6.1083-4.5814 11.06-10.233 11.06-5.6514 0-10.233-4.9518-10.233-11.06 0-6.1083 4.5814-11.06 10.233-11.06 5.6514 0 10.233 4.9518 10.233 11.06z" fill="url(#ak)"/>
 <path d="m195.76 212.31c0 3.8584-2.8939 6.9863-6.4637 6.9863s-6.4637-3.1279-6.4637-6.9863 2.8939-6.9863 6.4637-6.9863 6.4637 3.1278 6.4637 6.9863z" fill="#7c6c65"/>
 <path d="m193.87 212.31c0 2.7334-2.0502 4.9494-4.5792 4.9494s-4.5792-2.2159-4.5792-4.9494 2.0502-4.9494 4.5792-4.9494 4.5792 2.2159 4.5792 4.9494z" fill="url(#al)"/>
 <path d="m191.52 212.31c0 1.3273-0.9955 2.4033-2.2235 2.4033s-2.2235-1.076-2.2235-2.4033 0.99551-2.4033 2.2235-2.4033 2.2235 1.076 2.2235 2.4033z" fill="url(#am)"/>
 <path d="m125.69 206.94c-1.3332 0-4.664-0.35963-4.664-0.35963l-5.9972-1.0801-1.332 11.522 10.327 2.1603-1.3332 2.5211h-6.6627c-1.3321 0-6.0574-4.1745-6.0574-4.1745s-1.6251-5.3025-1.1356-7.9206c0.52806-2.8219 4.195-7.3498 4.195-7.3498l9.6607 0.7205 4.664 1.0801-1.6648 2.8808z" fill="url(#ad)"/>
 <path d="m138.08 217.29c-0.41647 1.1585-1.1364 1.9372-1.608 1.7391-0.47162-0.19809-0.51631-1.2978-0.099838-2.4563 0.41649-1.1585 1.1364-1.9372 1.6081-1.7391 0.47162 0.19806 0.51631 1.2978 0.099823 2.4563z"/>
 <path d="m134.67 207.49l-5.183 15.276 4.7117 1.5281 5.1818-14.768-4.7106-2.0363z" fill="url(#ae)"/>
 <path d="m122.5 212.65c-0.19852 1.2242-0.76344 2.1402-1.2618 2.0458-0.4984-0.094406-0.74147-1.1634-0.54295-2.3876 0.1985-1.2242 0.76344-2.1402 1.2618-2.0458 0.4984 0.094406 0.74147 1.1634 0.54297 2.3876z"/>
 <path d="m121.95 210.54l-10.528-0.0074-0.0568 1.2618 10.098 2.5482 0.4872-3.8026z" fill="url(#af)"/>
 <path d="m262.48 207.27c0 1.3273-0.99548 2.4033-2.2235 2.4033s-2.2235-1.076-2.2235-2.4033 0.99551-2.4033 2.2235-2.4033 2.2235 1.076 2.2235 2.4033z" fill="url(#an)"/>
 <path d="m64.98 248.21c-1.4366 0.44432-2.8856 0.49464-4.3642 0.38419-0.35883 2.5064-0.51215 5.1552 0.10563 6.9423 1.5944 4.6139 10.008 10.088 10.008 10.088s-5.242-6.6588-5.9983-10.778c-0.32594-1.7773-0.12379-4.2555 0.2487-6.6367z" fill="url(#ag)"/>
 <path d="m77.756 245.37c-0.4446 0.25931-0.90026 0.51227-1.384 0.6904-0.45708 0.16835-0.94202 0.22824-1.4195 0.26852l8.4462 8.5153s-4.2323-5.3923-5.6426-9.4742z" fill="url(#ah)"/>
 <path d="m179.66 54.74l-26.451-0.1755 4.0031-42.568s4.8116-5.4195 7.9528-5.4617c3.5113-0.047262 9.0293 5.8651 9.0293 5.8651l5.4657 42.34z" fill="url(#ai)"/>
</svg>
